REM DIRINDEX 1\2,1\3,1\4,1\5\6,1\5\7,1\8
REM DIRNAME folder01,folder02,folder03,folder04,folder05,folder06,folder07,folder08
TITLE ""
FILE "148 Åy148ÅzUnit8 (DATA FILE_åÍúbóÕÇçÇÇﬂÇÈê⁄ì™é´ÅEê⁄îˆé´2).mp3" MP3
  TRACK 01 AUDIO
    TITLE "0:"
    INDEX 01 00:00:00
  TRACK 02 AUDIO
    TITLE "8:cjc115_5756"
    INDEX 01 00:00:07
  TRACK 03 AUDIO
    TITLE "0:"
    INDEX 01 00:01:40
  TRACK 04 AUDIO
    TITLE "6:cjc115_5757"
    INDEX 01 00:02:12
  TRACK 05 AUDIO
    TITLE "0:"
    INDEX 01 00:03:53
  TRACK 06 AUDIO
    TITLE "7:cjc115_5758"
    INDEX 01 00:03:63
  TRACK 07 AUDIO
    TITLE "0:"
    INDEX 01 00:07:17
  TRACK 08 AUDIO
    TITLE "6:cjc115_5759"
    INDEX 01 00:08:24
  TRACK 09 AUDIO
    TITLE "0:"
    INDEX 01 00:10:10
  TRACK 10 AUDIO
    TITLE "7:cjc115_5760"
    INDEX 01 00:10:19
  TRACK 11 AUDIO
    TITLE "0:"
    INDEX 01 00:13:43
  TRACK 12 AUDIO
    TITLE "6:cjc115_5761"
    INDEX 01 00:14:53
  TRACK 13 AUDIO
    TITLE "0:"
    INDEX 01 00:16:00
  TRACK 14 AUDIO
    TITLE "7:cjc115_5762"
    INDEX 01 00:16:10
  TRACK 15 AUDIO
    TITLE "0:"
    INDEX 01 00:18:44
  TRACK 16 AUDIO
    TITLE "6:cjc115_5763"
    INDEX 01 00:19:52
  TRACK 17 AUDIO
    TITLE "0:"
    INDEX 01 00:21:15
  TRACK 18 AUDIO
    TITLE "7:cjc115_5764"
    INDEX 01 00:21:23
  TRACK 19 AUDIO
    TITLE "0:"
    INDEX 01 00:24:33
  TRACK 20 AUDIO
    TITLE "6:cjc115_5765"
    INDEX 01 00:25:45
  TRACK 21 AUDIO
    TITLE "0:"
    INDEX 01 00:27:00
  TRACK 22 AUDIO
    TITLE "7:cjc115_5766"
    INDEX 01 00:27:10
  TRACK 23 AUDIO
    TITLE "0:"
    INDEX 01 00:30:10
  TRACK 24 AUDIO
    TITLE "6:cjc115_5767"
    INDEX 01 00:31:18
  TRACK 25 AUDIO
    TITLE "0:"
    INDEX 01 00:32:50
  TRACK 26 AUDIO
    TITLE "7:cjc115_5768"
    INDEX 01 00:32:52
  TRACK 27 AUDIO
    TITLE "0:"
    INDEX 01 00:35:29
  TRACK 28 AUDIO
    TITLE "6:cjc115_5769"
    INDEX 01 00:36:36
  TRACK 29 AUDIO
    TITLE "0:"
    INDEX 01 00:38:08
  TRACK 30 AUDIO
    TITLE "7:cjc115_5770"
    INDEX 01 00:38:18
  TRACK 31 AUDIO
    TITLE "0:"
    INDEX 01 00:39:51
  TRACK 32 AUDIO
    TITLE "6:cjc115_5771"
    INDEX 01 00:40:58
  TRACK 33 AUDIO
    TITLE "0:"
    INDEX 01 00:42:25
  TRACK 34 AUDIO
    TITLE "7:cjc115_5772"
    INDEX 01 00:42:31
  TRACK 35 AUDIO
    TITLE "0:"
    INDEX 01 00:45:49
  TRACK 36 AUDIO
    TITLE "6:cjc115_5773"
    INDEX 01 00:46:54
  TRACK 37 AUDIO
    TITLE "0:"
    INDEX 01 00:48:18
  TRACK 38 AUDIO
    TITLE "7:cjc115_5774"
    INDEX 01 00:48:20
  TRACK 39 AUDIO
    TITLE "0:"
    INDEX 01 00:51:46
  TRACK 40 AUDIO
    TITLE "6:cjc115_5775"
    INDEX 01 00:52:51
  TRACK 41 AUDIO
    TITLE "0:"
    INDEX 01 00:54:15
  TRACK 42 AUDIO
    TITLE "7:cjc115_5776"
    INDEX 01 00:54:21
  TRACK 43 AUDIO
    TITLE "0:"
    INDEX 01 00:55:63
  TRACK 44 AUDIO
    TITLE "6:cjc115_5777"
    INDEX 01 00:56:72
  TRACK 45 AUDIO
    TITLE "0:"
    INDEX 01 00:58:36
  TRACK 46 AUDIO
    TITLE "7:cjc115_5778"
    INDEX 01 00:58:44
  TRACK 47 AUDIO
    TITLE "0:"
    INDEX 01 01:00:51
  TRACK 48 AUDIO
    TITLE "6:cjc115_5779"
    INDEX 01 01:01:60
  TRACK 49 AUDIO
    TITLE "0:"
    INDEX 01 01:03:27
  TRACK 50 AUDIO
    TITLE "7:cjc115_5780"
    INDEX 01 01:03:47
  TRACK 51 AUDIO
    TITLE "0:"
    INDEX 01 01:05:03
  TRACK 52 AUDIO
    TITLE "6:cjc115_5781"
    INDEX 01 01:06:08
  TRACK 53 AUDIO
    TITLE "0:"
    INDEX 01 01:07:41
  TRACK 54 AUDIO
    TITLE "7:cjc115_5782"
    INDEX 01 01:07:47
  TRACK 55 AUDIO
    TITLE "0:"
    INDEX 01 01:11:13
  TRACK 56 AUDIO
    TITLE "6:cjc115_5783"
    INDEX 01 01:12:23
  TRACK 57 AUDIO
    TITLE "0:"
    INDEX 01 01:13:34
  TRACK 58 AUDIO
    TITLE "7:cjc115_5784"
    INDEX 01 01:13:45
  TRACK 59 AUDIO
    TITLE "0:"
    INDEX 01 01:16:56
  TRACK 60 AUDIO
    TITLE "6:cjc115_5785"
    INDEX 01 01:17:67
  TRACK 61 AUDIO
    TITLE "0:"
    INDEX 01 01:19:05
  TRACK 62 AUDIO
    TITLE "7:cjc115_5786"
    INDEX 01 01:19:23
  TRACK 63 AUDIO
    TITLE "0:"
    INDEX 01 01:20:57
  TRACK 64 AUDIO
    TITLE "6:cjc115_5787"
    INDEX 01 01:21:63
  TRACK 65 AUDIO
    TITLE "0:"
    INDEX 01 01:23:03
  TRACK 66 AUDIO
    TITLE "7:cjc115_5788"
    INDEX 01 01:23:15
  TRACK 67 AUDIO
    TITLE "0:"
    INDEX 01 01:27:28
  TRACK 68 AUDIO
    TITLE "6:cjc115_5789"
    INDEX 01 01:28:37
  TRACK 69 AUDIO
    TITLE "0:"
    INDEX 01 01:29:64
  TRACK 70 AUDIO
    TITLE "7:cjc115_5790"
    INDEX 01 01:30:07
  TRACK 71 AUDIO
    TITLE "0:"
    INDEX 01 01:31:30
  TRACK 72 AUDIO
    TITLE "6:cjc115_5791"
    INDEX 01 01:32:41
  TRACK 73 AUDIO
    TITLE "0:"
    INDEX 01 01:33:62
  TRACK 74 AUDIO
    TITLE "7:cjc115_5792"
    INDEX 01 01:33:70
  TRACK 75 AUDIO
    TITLE "0:"
    INDEX 01 01:38:04
  TRACK 76 AUDIO
    TITLE "6:cjc115_5793"
    INDEX 01 01:39:12
  TRACK 77 AUDIO
    TITLE "0:"
    INDEX 01 01:40:38
  TRACK 78 AUDIO
    TITLE "7:cjc115_5794"
    INDEX 01 01:40:46
  TRACK 79 AUDIO
    TITLE "0:"
    INDEX 01 01:43:68
  TRACK 80 AUDIO
    TITLE "6:cjc115_5795"
    INDEX 01 01:45:02
  TRACK 81 AUDIO
    TITLE "0:"
    INDEX 01 01:46:21
  TRACK 82 AUDIO
    TITLE "7:cjc115_5796"
    INDEX 01 01:46:29
  TRACK 83 AUDIO
    TITLE "0:"
    INDEX 01 01:47:64
  TRACK 84 AUDIO
    TITLE "6:cjc115_5797"
    INDEX 01 01:48:73
  TRACK 85 AUDIO
    TITLE "0:"
    INDEX 01 01:50:09
  TRACK 86 AUDIO
    TITLE "7:cjc115_5798"
    INDEX 01 01:50:17
  TRACK 87 AUDIO
    TITLE "0:"
    INDEX 01 01:51:36
  TRACK 88 AUDIO
    TITLE "6:cjc115_5799"
    INDEX 01 01:52:48
  TRACK 89 AUDIO
    TITLE "0:"
    INDEX 01 01:54:01
  TRACK 90 AUDIO
    TITLE "7:cjc115_5800"
    INDEX 01 01:54:09
  TRACK 91 AUDIO
    TITLE "0:"
    INDEX 01 01:55:69
  TRACK 92 AUDIO
    TITLE "6:cjc115_5801"
    INDEX 01 01:57:06
  TRACK 93 AUDIO
    TITLE "0:"
    INDEX 01 01:58:46
  TRACK 94 AUDIO
    TITLE "7:cjc115_5802"
    INDEX 01 01:58:50
  TRACK 95 AUDIO
    TITLE "0:"
    INDEX 01 02:00:10
  TRACK 96 AUDIO
    TITLE "6:cjc115_5803"
    INDEX 01 02:01:17
  TRACK 97 AUDIO
    TITLE "0:"
    INDEX 01 02:02:40
  TRACK 98 AUDIO
    TITLE "7:cjc115_5804"
    INDEX 01 02:02:50
  TRACK 99 AUDIO
    TITLE "0:"
    INDEX 01 02:03:61
  TRACK 100 AUDIO
    TITLE "6:cjc115_5805"
    INDEX 01 02:04:70
  TRACK 101 AUDIO
    TITLE "0:"
    INDEX 01 02:06:12
  TRACK 102 AUDIO
    TITLE "7:cjc115_5806"
    INDEX 01 02:06:16
  TRACK 103 AUDIO
    TITLE "0:"
    INDEX 01 02:08:41
  TRACK 104 AUDIO
    TITLE "6:cjc115_5807"
    INDEX 01 02:09:52
  TRACK 105 AUDIO
    TITLE "0:"
    INDEX 01 02:10:69
  TRACK 106 AUDIO
    TITLE "7:cjc115_5808"
    INDEX 01 02:11:00
  TRACK 107 AUDIO
    TITLE "0:"
    INDEX 01 02:13:42
  TRACK 108 AUDIO
    TITLE "6:cjc115_5809"
    INDEX 01 02:14:53
  TRACK 109 AUDIO
    TITLE "0:"
    INDEX 01 02:16:21
  TRACK 110 AUDIO
    TITLE "7:cjc115_5810"
    INDEX 01 02:16:32
  TRACK 111 AUDIO
    TITLE "0:"
    INDEX 01 02:18:21
  TRACK 112 AUDIO
    TITLE "6:cjc115_5811"
    INDEX 01 02:19:31
  TRACK 113 AUDIO
    TITLE "0:"
    INDEX 01 02:20:54
  TRACK 114 AUDIO
    TITLE "7:cjc115_5812"
    INDEX 01 02:20:61
  TRACK 115 AUDIO
    TITLE "0:"
    INDEX 01 02:21:73
  TRACK 116 AUDIO
    TITLE "6:cjc115_5813"
    INDEX 01 02:23:11
  TRACK 117 AUDIO
    TITLE "0:"
    INDEX 01 02:24:28
  TRACK 118 AUDIO
    TITLE "7:cjc115_5814"
    INDEX 01 02:24:38
  TRACK 119 AUDIO
    TITLE "0:"
    INDEX 01 02:26:07
  TRACK 120 AUDIO
    TITLE "6:cjc115_5815"
    INDEX 01 02:27:14
  TRACK 121 AUDIO
    TITLE "0:"
    INDEX 01 02:28:51
  TRACK 122 AUDIO
    TITLE "7:cjc115_5816"
    INDEX 01 02:28:61
  TRACK 123 AUDIO
    TITLE "0:"
    INDEX 01 02:30:40
  TRACK 124 AUDIO
    TITLE "6:cjc115_5817"
    INDEX 01 02:31:50
  TRACK 125 AUDIO
    TITLE "0:"
    INDEX 01 02:33:13
  TRACK 126 AUDIO
    TITLE "7:cjc115_5818"
    INDEX 01 02:33:23
  TRACK 127 AUDIO
    TITLE "0:"
    INDEX 01 02:35:18
  TRACK 128 AUDIO
    TITLE "6:cjc115_5819"
    INDEX 01 02:36:27
  TRACK 129 AUDIO
    TITLE "0:"
    INDEX 01 02:37:58
  TRACK 130 AUDIO
    TITLE "7:cjc115_5820"
    INDEX 01 02:37:66
  TRACK 131 AUDIO
    TITLE "0:"
    INDEX 01 02:39:33
  TRACK 132 AUDIO
    TITLE "6:cjc115_5821"
    INDEX 01 02:40:43
  TRACK 133 AUDIO
    TITLE "0:"
    INDEX 01 02:42:00
  TRACK 134 AUDIO
    TITLE "7:cjc115_5822"
    INDEX 01 02:42:10
  TRACK 135 AUDIO
    TITLE "0:"
    INDEX 01 02:45:50
  TRACK 136 AUDIO
    TITLE "6:cjc115_5823"
    INDEX 01 02:46:59
  TRACK 137 AUDIO
    TITLE "0:"
    INDEX 01 02:48:01
  TRACK 138 AUDIO
    TITLE "7:cjc115_5824"
    INDEX 01 02:48:07
  TRACK 139 AUDIO
    TITLE "0:"
    INDEX 01 02:49:61
  TRACK 140 AUDIO
    TITLE "6:cjc115_5825"
    INDEX 01 02:50:70
  TRACK 141 AUDIO
    TITLE "0:"
    INDEX 01 02:52:11
  TRACK 142 AUDIO
    TITLE "7:cjc115_5826"
    INDEX 01 02:52:22
  TRACK 143 AUDIO
    TITLE "0:"
    INDEX 01 02:55:09
  TRACK 144 AUDIO
    TITLE "6:cjc115_5827"
    INDEX 01 02:56:16
  TRACK 145 AUDIO
    TITLE "0:"
    INDEX 01 02:57:47
  TRACK 146 AUDIO
    TITLE "7:cjc115_5828"
    INDEX 01 02:57:55
  TRACK 147 AUDIO
    TITLE "0:"
    INDEX 01 03:00:55
  TRACK 148 AUDIO
    TITLE "6:cjc115_5829"
    INDEX 01 03:01:62
  TRACK 149 AUDIO
    TITLE "0:"
    INDEX 01 03:03:20
  TRACK 150 AUDIO
    TITLE "7:cjc115_5830"
    INDEX 01 03:03:22
  TRACK 151 AUDIO
    TITLE "0:"
    INDEX 01 03:06:54
  TRACK 152 AUDIO
    TITLE "6:cjc115_5831"
    INDEX 01 03:07:63
  TRACK 153 AUDIO
    TITLE "0:"
    INDEX 01 03:09:17
  TRACK 154 AUDIO
    TITLE "7:cjc115_5832"
    INDEX 01 03:09:27
  TRACK 155 AUDIO
    TITLE "0:"
    INDEX 01 03:11:12
  TRACK 156 AUDIO
    TITLE "6:cjc115_5833"
    INDEX 01 03:12:25
  TRACK 157 AUDIO
    TITLE "0:"
    INDEX 01 03:13:54
  TRACK 158 AUDIO
    TITLE "7:cjc115_5834"
    INDEX 01 03:13:66
  TRACK 159 AUDIO
    TITLE "0:"
    INDEX 01 03:15:53
  TRACK 160 AUDIO
    TITLE "6:cjc115_5835"
    INDEX 01 03:16:62
  TRACK 161 AUDIO
    TITLE "0:"
    INDEX 01 03:18:14
  TRACK 162 AUDIO
    TITLE "7:cjc115_5836"
    INDEX 01 03:18:26
  TRACK 163 AUDIO
    TITLE "0:"
    INDEX 01 03:21:38
  TRACK 164 AUDIO
    TITLE "6:cjc115_5837"
    INDEX 01 03:22:47
  TRACK 165 AUDIO
    TITLE "0:"
    INDEX 01 03:24:14
  TRACK 166 AUDIO
    TITLE "7:cjc115_5838"
    INDEX 01 03:24:24
  TRACK 167 AUDIO
    TITLE "0:"
    INDEX 01 03:26:00
  TRACK 168 AUDIO
    TITLE "6:cjc115_5839"
    INDEX 01 03:27:09
  TRACK 169 AUDIO
    TITLE "0:"
    INDEX 01 03:28:65
  TRACK 170 AUDIO
    TITLE "7:cjc115_5840"
    INDEX 01 03:28:73
  TRACK 171 AUDIO
    TITLE "0:"
    INDEX 01 03:30:31
  TRACK 172 AUDIO
    TITLE "6:cjc115_5841"
    INDEX 01 03:31:42
  TRACK 173 AUDIO
    TITLE "0:"
    INDEX 01 03:32:71
  TRACK 174 AUDIO
    TITLE "7:cjc115_5842"
    INDEX 01 03:33:08
  TRACK 175 AUDIO
    TITLE "0:"
    INDEX 01 03:34:36
  TRACK 176 AUDIO
    TITLE "6:cjc115_5843"
    INDEX 01 03:35:46
  TRACK 177 AUDIO
    TITLE "0:"
    INDEX 01 03:36:59
  TRACK 178 AUDIO
    TITLE "7:cjc115_5844"
    INDEX 01 03:36:67
  TRACK 179 AUDIO
    TITLE "0:"
    INDEX 01 03:39:12
  TRACK 180 AUDIO
    TITLE "6:cjc115_5845"
    INDEX 01 03:40:19
  TRACK 181 AUDIO
    TITLE "0:"
    INDEX 01 03:41:38
  TRACK 182 AUDIO
    TITLE "7:cjc115_5846"
    INDEX 01 03:41:44
  TRACK 183 AUDIO
    TITLE "0:"
    INDEX 01 03:44:33
